<svg version="1.1" id="svg1" width="533.53363" height="377.90768" viewBox="0 0 533.53363 377.90768" sodipodi:docname="honda_auto_logo.svg" inkscape:version="1.4 (86a8ad7, 2024-10-11)" xmlns:inkscape="http://www.inkscape.org/namespaces/inkscape" xmlns:sodipodi="http://sodipodi.sourceforge.net/DTD/sodipodi-0.dtd" xmlns="http://www.w3.org/2000/svg" xmlns:svg="http://www.w3.org/2000/svg" style="width:100%;height:100%;display:block;" preserveAspectRatio="xMidYMid meet">
  <defs id="defs1"/>
  <sodipodi:namedview id="namedview1" pagecolor="#ffffff" bordercolor="#000000" borderopacity="0.25" inkscape:showpageshadow="2" inkscape:pageopacity="0.0" inkscape:pagecheckerboard="0" inkscape:deskcolor="#d1d1d1" inkscape:zoom="0.75322452" inkscape:cx="189.18662" inkscape:cy="387.66661" inkscape:window-width="1368" inkscape:window-height="842" inkscape:window-x="-6" inkscape:window-y="-6" inkscape:window-maximized="1" inkscape:current-layer="g1"/>
  <g inkscape:groupmode="layer" inkscape:label="Image" id="g1" transform="translate(-371.72227,-8.8561916)">
    <path style="fill:#FFFFFF" d="m 440.67452,386.32948 c -0.53227,-0.23191 -1.15706,-0.83713 -1.38843,-1.34493 -0.47215,-1.03625 -8.05924,-42.39744 -27.37737,-149.24837 -6.0794,-33.62589 -22.96816,-127.0835 -24.3453,-134.72 -0.77761,-4.311998 -2.35064,-13.023998 -3.49562,-19.359998 -2.07309,-11.47196 -4.036,-22.39551 -9.48221,-52.76836 -1.57483,-8.7826 -2.86332,-16.46167 -2.86332,-17.06461 0,-1.63574 1.44486,-2.9670204 3.22013,-2.9670204 1.94166,0 32.96242,4.7804004 38.28151,5.8993104 6.3755,1.34112 10.16473,3.92889 13.11047,8.95348 1.59464,2.72 7.11153,14.53092 24.75036,52.9872 26.21474,57.153528 34.82449,73.447548 46.80096,88.571248 3.95953,5.00003 12.09798,13.15245 16.39657,16.42473 17.1408,13.04832 35.10973,18.93354 64.8,21.22343 35.74753,2.75706 101.86199,2.26471 129.12,-0.96155 32.31459,-3.82476 53.51944,-14.7612 70.99902,-36.61786 11.74885,-14.69089 20.7907,-31.75874 46.27457,-87.350248 19.83817,-43.27578 24.40949,-52.98475 26.1623,-55.56588 1.49595,-2.20288 3.54732,-4.17362 5.5443,-5.32636 3.24175,-1.87127 6.79237,-2.57658 34.18478,-6.79064 11.02745,-1.6964704 11.82179,-1.7374704 13.05719,-0.6739204 1.54195,1.3274504 2.22508,-3.08581 -9.98511,64.5070504 -1.12866,6.248 -5.01492,27.775998 -8.63613,47.839998 -6.71501,37.20575 -10.45723,57.90673 -19.23449,106.4 -2.72368,15.048 -6.17701,34.128 -7.67406,42.4 -4.68144,25.86744 -17.95958,98.87014 -19.2948,106.08206 -0.70078,3.78514 -1.41139,7.24114 -1.57913,7.68 -0.35836,0.93757 -1.22992,1.76068 -2.16506,2.04471 -0.60985,0.18523 -16.7808,-1.27817 -40.3001,-3.64699 -10.04027,-1.01123 -12.55116,-1.55444 -14.83608,-3.20963 -2.12538,-1.53961 -3.6119,-4.25512 -6.8801,-12.56827 -17.75874,-45.172 -18.55389,-47.1292 -22.27597,-54.83095 -3.41909,-7.07481 -5.60457,-10.83141 -8.83653,-15.18903 -8.80363,-11.86984 -21.0345,-18.78459 -38.3646,-21.68953 -13.73206,-2.30183 -34.73508,-3.37697 -65.92,-3.37444 -24.95071,0.002 -38.4583,0.48211 -54.24,1.92781 -26.83174,2.45795 -40.92315,9.63252 -52.11529,26.53426 -5.17701,7.81803 -8.40884,14.9277 -18.98096,41.75595 -3.50334,8.89023 -7.88886,20.01075 -9.7456,24.71226 -3.55707,9.00701 -4.79324,11.25392 -7.05124,12.8165 -1.47179,1.01852 -3.30391,1.69353 -5.78757,2.13233 -1.53845,0.27181 -47.78476,4.84849 -48.60831,4.81043 -0.14906,-0.007 -0.70652,-0.20227 -1.23878,-0.43417 z" id="path1"/>
  </g>
</svg>